<?xml version="1.0" encoding="UTF-8"?>
<svg version="1.1" xmlns="http://www.w3.org/2000/svg" width="2000" height="2000">
<path d="M0 0 C660 0 1320 0 2000 0 C2000 660 2000 1320 2000 2000 C1340 2000 680 2000 0 2000 C0 1340 0 680 0 0 Z " fill="#FEFEFE" transform="translate(0,0)"/>
<path d="M0 0 C127.05 0 254.1 0 385 0 C385 5.28 385 10.56 385 16 C381.45378906 17.37671875 381.45378906 17.37671875 377.8359375 18.78125 C375.49473597 19.69889982 373.15503192 20.62027364 370.81542969 21.54199219 C369.21506195 22.17022778 367.61321536 22.79471189 366.00976562 23.41503906 C345.61692093 31.31151652 326.23167992 40.28781294 316.52897859 61.16521132 C311.35298145 73.45876759 310.40757826 86.68927783 310.48101807 99.8565979 C310.47512331 101.46843767 310.46748622 103.08027182 310.458287 104.69209611 C310.43825606 109.06393825 310.44251971 113.43545167 310.45119452 117.80731821 C310.45618003 122.54327847 310.43800442 127.27916037 310.42277527 132.01509094 C310.3995584 140.20140064 310.39071049 148.387622 310.39188385 156.57396317 C310.39355912 168.40972249 310.3731572 180.24536468 310.34752855 192.08109264 C310.30653067 211.28810553 310.2831558 230.49509722 310.27099609 249.70214844 C310.25915261 268.34963013 310.2388816 286.99707176 310.20751953 305.64453125 C310.20460126 307.38895583 310.20460126 307.38895583 310.20162404 309.1686213 C310.18634134 318.26491898 310.17057303 327.3612158 310.1546514 336.45751238 C310.07686052 380.97166838 310.04138934 425.4857665 310 470 C429.46 470 548.92 470 672 470 C671.93861447 401.83394558 671.93861447 401.83394558 671.83984375 333.66796875 C671.82375252 324.46923879 671.80790918 315.27050844 671.79248047 306.07177734 C671.78956456 304.3425152 671.78956456 304.3425152 671.78658974 302.57831848 C671.75560608 283.9895028 671.73860486 265.40069946 671.72680578 246.81186284 C671.7143756 227.72131135 671.68683212 208.63082436 671.64538693 189.5403136 C671.62030496 177.76940117 671.60687885 165.99859577 671.60857043 154.22765623 C671.60860028 146.14554893 671.59389205 138.0635503 671.56783572 129.98148538 C671.55325146 125.32512477 671.54493352 120.66898699 671.55419731 116.01260757 C671.56255896 111.73701838 671.55212754 107.46187451 671.52766338 103.18635093 C671.52203656 101.65173031 671.52290539 100.11706664 671.53148755 98.5824597 C671.6291669 79.45453764 668.09655872 59.66385181 655 45 C642.50503091 33.64587592 626.6953513 27.87111987 611.125 22.0625 C609.55052295 21.4687835 607.97630259 20.87438581 606.40234375 20.27929688 C602.60486888 18.84376353 598.80258331 17.42222604 595 16 C595 10.72 595 5.44 595 0 C722.71 0 850.42 0 982 0 C982 5.28 982 10.56 982 16 C980.25976562 16.6290625 978.51953125 17.258125 976.7265625 17.90625 C938.1061775 30.69798839 938.1061775 30.69798839 910.46484375 58.8125 C908.05518753 64.05591194 906.45392229 69.42663124 905 75 C904.78601562 75.74121094 904.57203125 76.48242188 904.3515625 77.24609375 C901.6686148 86.90859381 901.85528047 96.91100069 901.87136555 106.85591698 C901.87001697 108.2463275 901.86823199 109.63673765 901.86605331 111.02714711 C901.86134101 114.84119599 901.86281923 118.65522087 901.86533108 122.4692709 C901.86696799 126.62143835 901.86282013 130.77360076 901.85942191 134.92576659 C901.85427263 142.20108748 901.85284989 149.47640171 901.85387802 156.75172424 C901.85540322 167.57091075 901.85124054 178.39008989 901.8460034 189.20927497 C901.83633127 209.65866128 901.83351919 230.10804508 901.83294634 250.55743341 C901.83248677 266.35221989 901.8304283 282.14700538 901.82724571 297.94179153 C901.82634816 302.48860697 901.82545835 307.0354224 901.82457083 311.58223784 C901.82434979 312.7126061 901.82412874 313.84297436 901.82390099 315.0075962 C901.81774639 346.80507409 901.81380046 378.60255163 901.81424427 410.40003014 C901.81425985 411.59894814 901.81427543 412.79786614 901.81429148 414.03311499 C901.81437459 420.10968549 901.81447363 426.18625599 901.81457619 432.26282649 C901.81459613 433.46964615 901.81461608 434.67646581 901.81463663 435.91985577 C901.81467706 438.36034109 901.81471886 440.80082641 901.81476202 443.24131173 C901.81537459 481.19977806 901.80787176 519.15823545 901.79418945 557.11669922 C901.77882197 599.76785841 901.77022366 642.41901173 901.77115268 685.07017386 C901.7712273 689.62013284 901.77127601 694.17009183 901.77130699 698.72005081 C901.77131865 699.84035554 901.7713303 700.96066026 901.77134231 702.11491362 C901.77137306 720.12872392 901.76499226 738.14252646 901.75637473 756.15633445 C901.74788918 774.26921809 901.74691534 792.38209038 901.75348405 810.4949749 C901.75717388 821.24871624 901.75536432 832.00242309 901.74554171 842.75616077 C901.73952777 849.94947596 901.74085286 857.14276626 901.74801221 864.33608033 C901.75188183 868.42801278 901.75270393 872.51987864 901.74455485 876.61180632 C900.80706233 907.44632263 900.80706233 907.44632263 908 937 C908.433125 938.01449219 908.86625 939.02898438 909.3125 940.07421875 C919.81718892 962.82486297 942.73262471 970.65269428 964.625 979.3125 C965.9857985 979.85451296 967.34647616 980.39682944 968.70703125 980.93945312 C975.3065235 983.59646341 975.3065235 983.59646341 982 986 C982 991.28 982 996.56 982 1002 C854.29 1002 726.58 1002 595 1002 C595 996.72 595 991.44 595 986 C597.0521875 985.29875 599.104375 984.5975 601.21875 983.875 C638.26574238 971.8912853 638.26574238 971.8912853 663.625 944 C668.71030325 932.2381857 671.11153773 919.33880786 671.1386652 906.56564331 C671.14150742 905.85911422 671.14434964 905.15258514 671.14727798 904.42464608 C671.15556574 902.06938091 671.1568885 899.71416531 671.15821838 897.35888672 C671.16278777 895.64843856 671.16778835 893.9379915 671.17318195 892.22754574 C671.18672953 887.53677298 671.1941716 882.84600744 671.20060861 878.15522027 C671.20862743 873.09327364 671.2223201 868.03134197 671.23532104 862.96940613 C671.25706277 854.20235667 671.27521568 845.43530567 671.29092598 836.66824341 C671.31364559 823.99256705 671.34178552 811.31690728 671.37124526 798.64124501 C671.41889553 778.07545322 671.46216666 757.50965464 671.50268555 736.94384766 C671.54205352 716.96695426 671.58349412 696.99006693 671.62768555 677.01318359 C671.63043505 675.76909882 671.63318456 674.52501405 671.63601738 673.24322975 C671.65753674 663.51356295 671.67917624 653.78389642 671.70085371 644.05422997 C671.80706339 596.36949887 671.90279392 548.68475195 672 501 C552.21 501 432.42 501 309 501 C309.09052004 572.89846672 309.09052004 572.89846672 309.20898438 644.796875 C309.22703349 654.49804647 309.2448973 664.19921825 309.26245117 673.90039062 C309.2657627 675.72411922 309.2657627 675.72411922 309.26914114 677.58469081 C309.30447384 697.19180413 309.32935325 716.79891741 309.35034702 736.40605073 C309.37213923 756.540724 309.40522208 776.67535611 309.44870156 796.80999434 C309.47515937 809.22578706 309.49289795 821.64152852 309.49934604 834.05734803 C309.50461791 842.58095842 309.52089505 851.1045044 309.54566566 859.62808023 C309.55961915 864.53958778 309.5688746 869.45098019 309.56500816 874.36250877 C309.56156673 878.87117921 309.57213994 883.37960488 309.59323552 887.88822527 C309.5984502 889.50763811 309.59879532 891.12707674 309.59339563 892.74648897 C309.56823571 901.15787295 309.9944385 909.29303475 311.35304546 917.60489845 C311.47130847 918.32908788 311.58957147 919.0532773 311.7114182 919.79941186 C314.89504856 937.55694335 324.69377549 954.12098237 339.0625 965.0625 C353.36665024 974.90998302 368.65975365 980.41977358 385 986 C385 990.95 385 995.9 385 1001 C257.95 1001 130.9 1001 0 1001 C0 996.05 0 991.1 0 986 C2.124375 985.14277344 4.24875 984.28554687 6.4375 983.40234375 C32.91686747 973.8997007 32.91686747 973.8997007 57 960 C58.04220703 959.21882813 58.04220703 959.21882813 59.10546875 958.421875 C67.23425141 951.89444728 70.94944064 943.79121256 74.25 934.125 C74.49637207 933.40658936 74.74274414 932.68817871 74.99658203 931.94799805 C78.53383822 920.98299278 79.29383357 910.13531328 79.25726891 898.67375755 C79.25996754 897.25653342 79.26353832 895.83931072 79.26789337 894.42209071 C79.27729821 890.54291214 79.27436809 886.66382814 79.26933783 882.78464509 C79.26605888 878.55844667 79.27436396 874.33226794 79.28115618 870.10607588 C79.29144638 862.70394153 79.29430168 855.30183333 79.29224396 847.89969254 C79.28919144 836.89207435 79.29752351 825.88448505 79.30799321 814.87687249 C79.3273287 794.07203866 79.33296126 773.2672147 79.33410732 752.46237294 C79.33502664 736.3949232 79.3391445 720.32747732 79.34550858 704.26002884 C79.34730368 699.63394694 79.34908331 695.00786503 79.35085833 690.38178313 C79.35130043 689.23170411 79.35174252 688.0816251 79.35219802 686.8966952 C79.36450534 654.54978476 79.37239925 622.20287565 79.37151146 589.85596275 C79.3714803 588.6365663 79.37144914 587.41716985 79.37141704 586.16082199 C79.37125083 579.98050553 79.37105275 573.80018907 79.37084763 567.61987261 C79.37080774 566.39245408 79.37076785 565.16503555 79.37072675 563.90042251 C79.37064587 561.4182834 79.37056228 558.93614429 79.37047596 556.45400518 C79.3692505 517.83732303 79.38426329 479.22067601 79.41162109 440.60400391 C79.44234964 397.21158872 79.45955313 353.81919661 79.45769465 310.42676985 C79.45754539 305.79880182 79.45744798 301.17083379 79.45738602 296.54286575 C79.45735105 294.83359974 79.45735105 294.83359974 79.45731538 293.08980309 C79.45725387 274.76141428 79.47001922 256.43305599 79.48725055 238.10467626 C79.50421342 219.68064343 79.50617571 201.2566552 79.4930319 182.83261888 C79.48564723 171.89177954 79.48928637 160.95107579 79.50891658 150.01025085 C79.52093134 142.6948444 79.51830887 135.37953599 79.50397559 128.06413401 C79.49622527 123.9008082 79.49462391 119.73774446 79.51089029 115.57443731 C79.68922767 78.0766816 79.68922767 78.0766816 62.0390625 45.9140625 C50.31221337 34.8645765 35.50558766 29.75124069 20.75 24.0625 C18.73271551 23.27630707 16.71578524 22.48920462 14.69921875 21.70117188 C9.80349815 19.79027533 4.90315456 17.89173568 0 16 C0 10.72 0 5.44 0 0 Z " fill="#000000" transform="translate(985,528)"/>
<path d="M0 0 C289.41 0 578.82 0 877 0 C882 206 882 206 882 247 C877.05 247 872.1 247 867 247 C860.68274643 235.05770256 854.44474369 223.07846865 848.30038452 211.04632568 C846.0216872 206.58433355 843.73902408 202.12436984 841.45703125 197.6640625 C840.76671562 196.31442917 840.76671562 196.31442917 840.06245422 194.93753052 C834.87965295 184.80614262 829.68115351 174.68282595 824.46777344 164.56713867 C823.73761072 163.15023791 823.00746734 161.73332718 822.27734375 160.31640625 C821.92076691 159.62449692 821.56419006 158.93258759 821.19680786 158.2197113 C819.07063128 154.09046786 816.95658197 149.95528003 814.85215759 145.81491089 C800.1638686 116.9195827 784.64724771 88.15722673 764 63 C763.26523437 62.10023438 762.53046875 61.20046875 761.7734375 60.2734375 C743.53190991 38.93794057 718.49925817 33.65160227 691.85873032 31.28063583 C680.59444895 30.46141274 669.29051284 30.51352016 658.0019362 30.49388909 C654.29042957 30.48429718 650.57903442 30.45808351 646.86759949 30.43388367 C639.88803447 30.39077226 632.90849172 30.36189001 625.92883557 30.33856028 C617.96215203 30.31120548 609.99558378 30.26731738 602.02898371 30.22227156 C585.68604829 30.13022157 569.34309193 30.05818317 553 30 C553.04397656 113.07040992 553.09165237 196.1408175 553.15898132 279.21121216 C553.15997689 280.44083774 553.16097246 281.67046333 553.16199819 282.93735029 C553.18365713 309.66094354 553.20597986 336.38453619 553.22898628 363.1081283 C553.24026472 376.21352423 553.25139649 389.31892029 553.26245117 402.42431641 C553.26355374 403.72845526 553.2646563 405.03259411 553.26579228 406.37625232 C553.30145568 448.64101478 553.32743566 490.90577644 553.34838969 533.17054853 C553.3699753 576.60600435 553.40133877 620.04144241 553.44499113 663.47688192 C553.4511533 669.6129664 553.45720379 675.74905099 553.46318626 681.88513565 C553.46436715 683.09279556 553.46554803 684.30045546 553.46676469 685.54471112 C553.48548031 704.97838822 553.49389994 724.41205677 553.49846124 743.84574178 C553.5032678 763.38696878 553.51894055 782.92816321 553.54566566 802.46937273 C553.56121095 814.07665426 553.56846406 825.68387152 553.56376929 837.29116287 C553.56145261 845.05123995 553.57002433 852.81125643 553.58732411 860.57131441 C553.59686414 864.98878101 553.60178921 869.40611371 553.59339563 873.82358573 C552.94483472 913.1535168 552.94483472 913.1535168 571 947 C571.78375 947.86625 572.5675 948.7325 573.375 949.625 C574.24125 950.40875 575.1075 951.1925 576 952 C576.56460938 952.51949219 577.12921875 953.03898437 577.7109375 953.57421875 C591.92063094 965.6878463 610.31107073 969.72988709 628 974 C628.82191833 974.19889832 629.64383667 974.39779663 630.49066162 974.60272217 C641.43621196 977.24885776 652.39001687 979.8594929 663.35417175 982.42747498 C668.24736189 983.57592953 673.12654503 984.77037596 678 986 C678 991.28 678 996.56 678 1002 C520.26 1002 362.52 1002 200 1002 C200 996.72 200 991.44 200 986 C202.79815186 985.30438965 202.79815186 985.30438965 205.65283203 984.59472656 C211.87182846 983.04809668 218.09025785 981.49920342 224.308321 979.94882584 C228.07193214 979.01051318 231.83575309 978.07306166 235.60009766 977.13769531 C239.24462131 976.23206639 242.88853604 975.3240226 246.53207016 974.41442108 C247.91024983 974.07078774 249.28863344 973.72797111 250.66724014 973.38605499 C268.94451604 969.20970348 268.94451604 969.20970348 286.25 962.25 C287.25256836 961.73348877 287.25256836 961.73348877 288.27539062 961.20654297 C304.80186354 952.4283512 315.01774001 938.53992089 320.63582897 920.81467628 C324.7264863 906.74040797 323.70320883 891.60994533 323.64627017 877.08764545 C323.63415934 872.57222016 323.65127654 868.05688493 323.66455668 863.54147589 C323.6838284 855.64137081 323.68474526 847.74143234 323.67340279 839.84131432 C323.65662155 828.09430667 323.66859012 816.34744907 323.68631649 804.60044905 C323.71533233 784.83683377 323.72123056 765.0732753 323.71384621 745.30964279 C323.70661319 725.74781982 323.70972089 706.18604325 323.72656822 686.62422562 C323.72761087 685.40686411 323.72865352 684.1895026 323.72972776 682.93525136 C323.73507669 676.752613 323.74060968 670.56997482 323.74621352 664.38733669 C323.78555038 620.6224814 323.80180915 576.85764504 323.80444336 533.09277344 C323.80705502 490.58202037 323.82015289 448.0712916 323.84741211 405.56054688 C323.84866675 403.59418536 323.84866675 403.59418536 323.84994673 401.58809937 C323.8583582 388.42314387 323.86698247 375.25818851 323.87576263 362.09323324 C323.8936432 335.27591153 323.91010361 308.458589 323.92570496 281.64126587 C323.92678351 279.79183555 323.92678351 279.79183555 323.92788386 277.90504301 C323.97571815 195.60337029 323.99044978 113.30168496 324 31 C305.0580299 31.08409255 286.1161462 31.17929597 267.17429829 31.28752708 C258.37817922 31.3375312 249.58206891 31.38397494 240.78588867 31.421875 C233.1142079 31.45493914 225.44259759 31.49484867 217.77099484 31.54279006 C213.7134305 31.56791253 209.65591204 31.58973486 205.5982914 31.60334396 C201.76924938 31.61629499 197.94036586 31.63848577 194.11141205 31.66738319 C192.71557786 31.6763582 191.31971822 31.68212522 189.92385674 31.68421364 C181.09097148 31.69977819 172.69106522 32.43374216 164 34 C163.10374059 34.14476965 162.20748117 34.2895393 161.28406239 34.43869591 C135.65821212 38.63256021 118.20512797 54.6688377 103.6015625 74.8828125 C98.48079488 82.10150388 93.64299227 89.46634333 89 97 C88.54093262 97.74088867 88.08186523 98.48177734 87.60888672 99.24511719 C75.61291011 118.68361302 64.41510529 138.64629847 54.3828125 159.16894531 C51.48055402 165.10124828 48.4587239 170.95964931 45.37109375 176.796875 C39.07903569 188.69431956 32.98490926 200.69137765 26.88085938 212.68603516 C21.02729671 224.18410467 15.11624309 235.63918741 9 247 C4.05 247 -0.9 247 -6 247 C-6.24668354 220.9063633 -5.79528469 194.90526334 -4.78173828 168.83007812 C-4.68898459 166.44010971 -4.59637284 164.05013579 -4.50390625 161.66015625 C-4.45862793 160.49110748 -4.41334961 159.32205872 -4.36669922 158.11758423 C-3.96077781 147.41356831 -3.70888071 136.70939725 -3.5 126 C-3.13033668 107.28826375 -2.49043293 88.59119906 -1.74804688 69.890625 C-0.85890702 46.59096008 -0.4859821 23.32714059 0 0 Z " fill="#000000" transform="translate(37,528)"/>
</svg>
